<svg id="visual" viewBox="0 0 900 600" width="900" height="600" xmlns="http://www.w3.org/2000/svg" xmlns:xlink="http://www.w3.org/1999/xlink" version="1.1"><rect x="0" y="0" width="900" height="600" fill="#f1f5f9"></rect><path d="M0 512L21.5 507C43 502 86 492 128.8 493.5C171.7 495 214.3 508 257.2 510.5C300 513 343 505 385.8 509.3C428.7 513.7 471.3 530.3 514.2 528.8C557 527.3 600 507.7 642.8 502.8C685.7 498 728.3 508 771.2 513.7C814 519.3 857 520.7 878.5 521.3L900 522L900 601L878.5 601C857 601 814 601 771.2 601C728.3 601 685.7 601 642.8 601C600 601 557 601 514.2 601C471.3 601 428.7 601 385.8 601C343 601 300 601 257.2 601C214.3 601 171.7 601 128.8 601C86 601 43 601 21.5 601L0 601Z" fill="#fff" stroke-linecap="round" stroke-linejoin="miter"></path></svg>