<svg id="visual" viewBox="0 0 900 450" width="900" height="450" xmlns="http://www.w3.org/2000/svg" xmlns:xlink="http://www.w3.org/1999/xlink" version="1.1"><rect x="0" y="0" width="900" height="450" fill="#f1f5f9"></rect><path d="M0 44L21.5 46.8C43 49.7 86 55.3 128.8 54C171.7 52.7 214.3 44.3 257.2 48.7C300 53 343 70 385.8 75C428.7 80 471.3 73 514.2 73C557 73 600 80 642.8 75.3C685.7 70.7 728.3 54.3 771.2 49.3C814 44.3 857 50.7 878.5 53.8L900 57L900 0L878.5 0C857 0 814 0 771.2 0C728.3 0 685.7 0 642.8 0C600 0 557 0 514.2 0C471.3 0 428.7 0 385.8 0C343 0 300 0 257.2 0C214.3 0 171.7 0 128.8 0C86 0 43 0 21.5 0L0 0Z" fill="#fff" stroke-linecap="round" stroke-linejoin="miter"></path></svg>